<?xml version="1.0" encoding="UTF-8"?>
<svg id="Calque_1" xmlns="http://www.w3.org/2000/svg" version="1.1" viewBox="0 0 20 11.6">
  <!-- Generator: Adobe Illustrator 30.0.0, SVG Export Plug-In . SVG Version: 2.1.1 Build 123)  -->
  <polygon points="20 2.6 20 2.6 20 2.6 20 2.6"/>
  <path d="M18.7,0v.8H6.2V0h-2.6v.8h1.7v.4h.4v.7h-.4v.2h-1v.9h-1.3v1h-1v.9h-1v1.4H0v4.6h3.6v-.9h.9v-3.3h1v-.8h1.1v1.8h.9v.8h2.3v-.8h-2.3v-1.8h1.1v1.1h.6v-1.2h.6v1.8h.9v-1.1h.9v-1.2h1.9v-1.2h6v-.8h-5.9v-.8h6.5V0h-1.3ZM12.3,4.3h-.5v.4h-3.6v-.4h-.5v-1.6h.5v-.5h3.6v.5h.5v1.6Z"/>
  <rect x="8.4" y="2.8" width="3.4" height="1.3"/>
</svg>