<?xml version="1.0" encoding="UTF-8"?>
<svg id="Calque_1" xmlns="http://www.w3.org/2000/svg" version="1.1" viewBox="0 0 1920 590.7">
  <!-- Generator: Adobe Illustrator 30.0.0, SVG Export Plug-In . SVG Version: 2.1.1 Build 123)  -->
  <defs>
    <style>
      .st0 {
        fill: #bf3100;
      }

      .st1 {
        fill: #fff;
      }

      .st2 {
        fill: #f5bb00;
      }
    </style>
  </defs>
  <g>
    <path class="st0" d="M458.8,302.5h2.9c0,10.8,5.1,19.3,15.4,25.5,10.2,6.2,24.5,9.3,42.6,9.3s22.7-1.8,30.3-5.4c7.6-3.6,13.5-8.5,17.7-14.8,4.2-6.3,6.9-13.6,8.3-21.9,1.4-8.3,2-17.3,2-27v-18c0-12.8-1.4-24.1-4.2-33.9-2.8-9.9-6.4-18.2-10.9-25.1-4.4-6.9-9.4-12.1-14.9-15.7-5.5-3.6-11-5.4-16.4-5.4v-2.9h92.5v2.9c-11,0-19.5,7-25.4,20.9-5.9,13.9-8.8,33.6-8.8,59.2v18c0,14.9-1,28.6-3,41-2,12.5-5.6,23.2-10.7,32.3-5.2,9.1-12.4,16.1-21.5,21.2-9.2,5-20.8,7.5-34.9,7.5h-60.9v-67.9Z"/>
    <path class="st0" d="M613.4,367.4c2.9,0,6-1.7,9.4-5.2,3.4-3.5,6.6-8.6,9.7-15.4,3.1-6.8,5.7-15.2,7.7-25.2,2-10.1,3-21.8,3-35.1v-22.9c0-11.6,1.8-22.1,5.5-31.5,3.7-9.4,8.4-17.7,14.1-25.1,5.7-7.3,12-13.7,18.9-19.1,6.9-5.4,13.4-9.9,19.7-13.3,6.3-3.5,11.9-6,17-7.7,5-1.6,8.6-2.5,10.7-2.5s5.4.8,10.4,2.5c5,1.6,10.8,4.2,17.3,7.7,6.5,3.5,13.1,7.9,20,13.3,6.9,5.4,13.2,11.8,19,19.1,5.8,7.3,10.5,15.7,14.2,25.1,3.7,9.4,5.5,19.9,5.5,31.5v22.9c0,13.3,1,25,3,35.1,2,10.1,4.5,18.5,7.4,25.2,2.9,6.8,6,11.9,9.4,15.4,3.4,3.5,6.5,5.2,9.4,5.2v2.9h-87v-2.9c6.8-2.7,13.1-6.8,19.1-12.2,5-4.6,10-10.9,14.8-18.8,4.8-7.9,8.3-18.2,10.4-30.7h-145.6c1.9,12.6,5.3,22.8,10.1,30.7,4.8,7.9,9.8,14.2,14.8,18.8,6,5.4,12.5,9.5,19.4,12.2v2.9h-87.6v-2.9ZM801.6,267.7c-1.9-8.7-4.9-16.4-8.8-23.1-4-6.7-8.5-12.5-13.5-17.5-5-5-10.3-9.3-15.8-12.8-5.5-3.5-10.6-6.3-15.4-8.4-4.7-2.1-8.8-3.7-12.3-4.6-3.5-1-5.7-1.4-6.7-1.4s-3.2.5-6.7,1.4c-3.5,1-7.6,2.5-12.3,4.6-4.7,2.1-9.8,4.9-15.2,8.4-5.4,3.5-10.6,7.7-15.7,12.8s-9.6,10.9-13.6,17.5-7,14.4-8.7,23.1h144.7Z"/>
    <path class="st0" d="M1047.5,367.4c5.4.2,10-2.5,13.6-8,3.7-5.5,6.7-12.4,9-20.7,2.3-8.3,4-17.2,4.9-26.7,1-9.5,1.5-18,1.5-25.5v-22.9c0-14.1,1.6-27.2,4.8-39.3,3.2-12.1,8.1-22.6,14.8-31.5,6.7-8.9,15-15.8,25.1-20.9,10.1-5,22-7.5,36-7.5s26,2.5,36.1,7.5c10.1,5,18.6,12,25.2,21s11.6,19.6,14.9,31.8c3.3,12.2,4.9,25.3,4.9,39.4v22.3c0,5.2.2,10.8.7,16.8.5,6,1.2,12,2.2,18.1,1,6.1,2.2,11.9,3.6,17.5,1.4,5.6,3.3,10.5,5.5,14.8,2.2,4.3,4.8,7.6,7.7,10.2,2.9,2.5,6.2,3.7,9.9,3.5v2.9h-82.1v-2.9c7.5-3.5,14.3-8.7,20.3-15.7,2.5-2.9,5-6.4,7.4-10.4,2.4-4.1,4.6-8.7,6.5-14.1,1.9-5.3,3.5-11.4,4.6-18.1,1.2-6.8,1.7-14.3,1.7-22.6v-18c0-9.5-1.3-18.4-3.8-26.7-2.5-8.3-6.5-15.6-12-21.9-5.5-6.3-12.6-11.2-21.4-14.8-8.8-3.6-19.4-5.4-32-5.4s-22.3,1.6-31,4.9c-8.7,3.3-15.8,7.8-21.4,13.6-5.6,5.8-9.7,12.6-12.4,20.3-2.7,7.7-4.1,16-4.1,24.9v22.9c0,8.3.6,15.9,1.7,22.6,1.2,6.8,2.7,12.8,4.6,18.1,1.9,5.3,4.1,10,6.5,14.1,2.4,4.1,4.9,7.5,7.4,10.4,6,7,12.9,12.2,20.6,15.7v2.9h-81.8v-2.9Z"/>
    <path class="st0" d="M1330.9,249.7c12.8,0,24.2-.4,34.2-1.2,10-.8,18.6-2.2,25.5-4.2s12.3-4.8,16-8.4c3.7-3.6,5.5-8.1,5.5-13.5h2.9v92.2h-2.9c0-5.4-1.8-9.9-5.5-13.3-3.7-3.5-9-6.2-16-8.3s-15.5-3.4-25.5-4.2c-10.1-.8-21.5-1.2-34.2-1.2h-40.6c2.9,7.2,7.2,13.8,12.8,19.9,5.6,6.1,12.2,11.3,19.9,15.7,7.6,4.3,16.1,7.8,25.5,10.3,9.4,2.5,19.3,3.8,29.7,3.8,25.9,0,45.7-3.1,59.5-9.3,13.7-6.2,20.6-14.7,20.6-25.5h2.9v67.9h-82.9c-14.1,0-27.4-2.5-39.7-7.5-12.4-5-23.2-12.1-32.5-21.2-9.3-9.1-16.6-19.9-21.9-32.3-5.3-12.5-8-26.1-8-41s2.7-28.2,8-40.5c5.3-12.3,12.6-22.9,21.9-31.9,9.3-9,20.1-16,32.5-21,12.4-5,25.6-7.5,39.7-7.5h82.9v67.3h-2.9c0-11-6.9-19.5-20.6-25.4-13.7-5.9-33.5-8.8-59.5-8.8s-20.4,1.3-29.9,3.8c-9.5,2.5-18,5.9-25.7,10.3-7.6,4.3-14.3,9.5-19.9,15.5-5.6,6-9.8,12.6-12.5,19.7h40.6Z"/>
  </g>
  <g>
    <path class="st1" d="M543.2,493.3c-16.6,0-31.6-3.4-44.6-10.2-12.9-6.7-23.9-15.3-32.9-25.6-9-10.3-15.9-21.8-20.6-34.1,0-.1,0-.2-.1-.3.9,4.4,1.9,8.6,3.2,12.3,4.1,12.4,8.7,22.3,13.7,29.2,5.6,8.2,12.1,14.3,19.3,18.2l2.1,1.1v9.3h-89.8v-10.9h4c4,0,7.5-2.2,10.5-6.6,3.5-5.2,6.4-11.8,8.6-19.6,2.2-8,3.9-16.6,4.9-25.8,1-9.2,1.6-17.6,1.6-24.9v-36.2c0-7.3-.5-15.7-1.6-24.8-1-9-2.7-17.6-4.9-25.5-2.2-7.7-5.1-14.2-8.6-19.3-3-4.4-6.4-6.5-10.5-6.5h-4v-10.9h102.4c14.2,0,27.8.8,40.4,2.4,12.9,1.6,24.4,5,34,10,9.9,5.2,17.9,12.6,23.7,22.2,5.8,9.6,8.7,22.2,8.7,37.6s-2.3,25.7-7,35c-4.7,9.4-11.2,17-19.5,22.6-8.1,5.5-17.9,9.4-28.9,11.8-10.8,2.3-22.6,3.4-35.2,3.4s-18.3-.9-27.9-2.7c-6.2-1.2-12.4-2.9-18.3-5.2,4.8,8.3,11.6,15.4,20.2,21.1,11.9,7.8,27.4,11.8,46.3,11.8s22.7-.8,30.4-2.4c7.5-1.5,13.3-3.7,17.3-6.4,3.8-2.5,6.2-5.5,7.5-8.9,1.4-3.8,2.1-8.2,2.1-13.1v-4h10.9v75.9h-57.4ZM448,375.7c1.6,0,3.3.4,4.9,1.3h.1c4.8,2.9,10.8,5,17.9,6.4,7.3,1.4,15.6,2.1,24.8,2.1h35.4c10.6,0,20.1-1,28.1-2.9,7.5-1.8,13.5-5,17.6-9.3,4-4.1,6-10.5,6-18.8s-1.5-12.8-4.5-16.7c-3.1-4-7.6-7.1-13.2-9.3-6-2.3-13.2-3.7-21.4-4.2-8.5-.6-17.8-.9-27.8-.9h-73.9v54.5c.3-.2.5-.4.8-.6,1.7-1.1,3.4-1.6,5.3-1.6Z"/>
    <path class="st1" d="M397.4,486.4c5.4,0,10-2.8,13.8-8.4,3.8-5.6,6.8-12.5,9.1-20.7,2.3-8.2,4-17,5.1-26.4,1.1-9.4,1.6-17.8,1.6-25.4v-36.2c0-7.5-.5-16-1.6-25.2-1.1-9.3-2.8-18-5.1-26.1-2.3-8.1-5.4-14.9-9.1-20.4s-8.4-8.3-13.8-8.3v-2.9h98.4c14.1,0,27.5.8,39.9,2.3,12.5,1.5,23.4,4.7,32.7,9.6,9.3,4.8,16.7,11.7,22.1,20.7,5.4,9,8.1,20.8,8.1,35.5s-2.2,24.4-6.5,33.2c-4.4,8.8-10.4,15.8-18.2,21-7.7,5.2-16.9,8.9-27.5,11.2-10.6,2.2-22,3.3-34.4,3.3s-17.8-.9-27.2-2.6c-9.4-1.7-18.4-4.8-27.2-9.3,4.8,13.3,13.6,24.2,26.1,32.5,12.6,8.3,28.8,12.5,48.5,12.5s23.2-.8,31.2-2.5c8-1.6,14.3-4,18.7-7,4.5-3,7.5-6.6,9-10.9,1.5-4.2,2.3-9.1,2.3-14.5h2.9v67.9h-53.4c-16,0-30.3-3.2-42.8-9.7-12.5-6.5-23.1-14.7-31.8-24.7-8.7-10-15.3-20.9-19.9-32.9-4.5-12-6.8-23.6-6.8-34.8s1-5.3,2.9-6.5c1.9-1.3,4-1.3,6.1-.1,5.2,3.1,11.6,5.4,19.1,6.8,7.5,1.4,16,2.2,25.5,2.2h35.4c11,0,20.7-1,29-3,8.3-2,14.8-5.5,19.6-10.4,4.7-4.9,7.1-12.1,7.1-21.6s-1.8-14.5-5.4-19.1c-3.6-4.6-8.6-8.2-15-10.6-6.4-2.4-13.9-3.9-22.5-4.5-8.6-.6-18-.9-28-.9h-77.9v67.9c0,20.1,2.1,36.6,6.4,49.4,4.3,12.9,9,23,14.2,30.3,6,8.7,12.9,15.2,20.6,19.4v2.9h-81.8v-2.9Z"/>
    <path class="st1" d="M728.7,272.8c-14.6,0-28.5-2.8-41.4-8.3-12.8-5.5-24.2-13.3-33.8-23.1-9.6-9.8-17.3-21.4-22.8-34.6-5.5-13.2-8.3-27.7-8.3-43s2.8-29.5,8.3-42.6c5.5-13.1,13.2-24.6,22.8-34.2,9.6-9.6,21-17.2,33.8-22.7,12.8-5.5,26.8-8.3,41.4-8.3s28.6,2.8,41.5,8.3c12.9,5.5,24.3,13.1,33.9,22.7,9.6,9.6,17.3,21.1,22.8,34.2,5.5,13.1,8.3,27.4,8.3,42.6s-2.8,29.8-8.3,43c-5.5,13.2-13.2,24.8-22.8,34.6-9.6,9.8-21,17.6-34,23.1-12.9,5.5-26.9,8.3-41.5,8.3ZM728.5,99.1c-12.1,0-23.5,1.8-34.1,5.3-10.6,3.5-19.9,8.3-27.9,14.2-7.8,5.8-14,12.7-18.5,20.5-4.4,7.7-6.6,16-6.6,24.7s2.2,17.3,6.6,25c4.4,7.8,10.7,14.8,18.5,20.7,7.9,6,17.3,10.8,27.8,14.2,10.6,3.4,22.1,5.2,34.1,5.2s23.6-1.7,34.3-5.2c10.6-3.4,20-8.2,28-14.2,7.8-5.9,14.1-12.9,18.7-20.7,4.5-7.7,6.7-16.1,6.7-25s-2.3-17-6.7-24.7c-4.5-7.8-10.8-14.7-18.7-20.6-7.9-5.9-17.4-10.7-28-14.2-10.7-3.5-22.2-5.3-34.3-5.3Z"/>
    <path class="st1" d="M728.7,268.8c-14.1,0-27.4-2.7-39.8-8-12.4-5.3-23.2-12.7-32.5-22.2-9.3-9.5-16.6-20.6-21.9-33.4-5.3-12.8-8-26.6-8-41.5s2.7-28.4,8-41c5.3-12.7,12.6-23.6,21.9-32.9,9.3-9.3,20.1-16.6,32.5-21.9,12.4-5.3,25.7-8,39.8-8s27.4,2.7,39.9,8c12.5,5.3,23.4,12.6,32.7,21.9,9.3,9.3,16.6,20.3,21.9,32.9,5.3,12.7,8,26.3,8,41s-2.7,28.7-8,41.5c-5.3,12.8-12.6,23.9-21.9,33.4-9.3,9.5-20.2,16.9-32.7,22.2-12.5,5.3-25.8,8-39.9,8ZM637.5,163.9c0,9.7,2.4,18.7,7.1,27,4.7,8.3,11.3,15.6,19.6,21.9,8.3,6.3,18,11.2,29,14.8,11,3.6,22.8,5.4,35.4,5.4s24.4-1.8,35.5-5.4c11.1-3.6,20.8-8.5,29.1-14.8,8.3-6.3,14.9-13.6,19.7-21.9,4.8-8.3,7.2-17.3,7.2-27s-2.4-18.4-7.2-26.7c-4.8-8.3-11.4-15.6-19.7-21.8-8.3-6.2-18-11.1-29.1-14.8-11.1-3.7-23-5.5-35.5-5.5s-24.4,1.8-35.4,5.5c-11,3.7-20.7,8.6-29,14.8-8.3,6.2-14.8,13.4-19.6,21.8-4.7,8.3-7.1,17.2-7.1,26.7Z"/>
    <path class="st1" d="M1166.3,493.3c-14.6,0-28.5-2.6-41.3-7.8-12.8-5.2-24.2-12.6-33.8-22-9.6-9.4-17.3-20.7-22.9-33.6-5.6-12.9-8.5-27.3-8.5-42.6s2.8-29.3,8.5-42.1c5.6-12.7,13.3-23.8,22.9-33.2,9.6-9.3,21-16.7,33.8-21.9,12.8-5.2,26.7-7.8,41.2-7.8h87.2v75.3h-10.9v-4c0-9.3-6-16.4-18.4-21.7-13.4-5.7-32.8-8.5-57.9-8.5s-23.6,1.7-34.3,5.2c-10.7,3.4-20,8.1-27.8,13.9-7.7,5.7-14,12.6-18.5,20.3-4.4,7.6-6.7,15.8-6.7,24.5s2.3,17.3,6.7,25c4.5,7.8,10.8,14.8,18.5,20.7,7.8,6,17.2,10.7,27.8,14.2,10.7,3.4,22.2,5.2,34.3,5.2,25,0,44-3,56.4-8.9,11.6-5.5,17.3-12.7,17.3-21.9v-26.4h-18c-25.2,0-44.9,1.9-58.6,5.5-18.1,4.9-18.1,14.6-18.1,17.7v4h-10.9v-74.7h10.9v4c0,11.8,10.3,15.9,18.1,18,13.6,3.7,33.3,5.5,58.6,5.5h37.1v71.6c0,6.2-1.1,12.3-3.2,17.9-2.2,5.8-5.6,10.9-10.2,15.2-4.6,4.2-10.6,7.6-17.9,10-7.1,2.3-16,3.5-26.2,3.5h-35.1Z"/>
    <path class="st1" d="M1166.3,489.3c-14.1,0-27.4-2.5-39.8-7.5-12.4-5-23.2-12.1-32.5-21.2-9.3-9.1-16.7-19.9-22.1-32.3-5.4-12.5-8.1-26.1-8.1-41s2.7-28.2,8.1-40.5c5.4-12.3,12.8-22.9,22-31.9,9.3-9,20.1-16,32.5-21,12.4-5,25.6-7.5,39.7-7.5h83.2v67.3h-2.9c0-11-7-19.5-20.9-25.4-13.9-5.9-33.7-8.8-59.5-8.8s-24.4,1.8-35.5,5.4c-11.1,3.6-20.8,8.4-29,14.5-8.2,6.1-14.7,13.2-19.6,21.5-4.8,8.2-7.2,17.1-7.2,26.5s2.4,18.7,7.2,27c4.8,8.3,11.4,15.6,19.6,21.9,8.2,6.3,17.9,11.2,29,14.8,11.1,3.6,23,5.4,35.5,5.4,25.7,0,45.1-3.1,58.1-9.3,13-6.2,19.6-14.7,19.6-25.5v-30.4h-22c-25.7,0-45.6,1.9-59.6,5.7-14,3.8-21,11-21,21.6h-2.9v-66.7h2.9c0,10.8,7,18.1,21,21.9,14,3.8,33.9,5.7,59.6,5.7h33.1v67.6c0,5.8-1,11.3-2.9,16.5-1.9,5.2-5,9.8-9.1,13.6-4.2,3.9-9.6,6.9-16.4,9.1-6.8,2.2-15.1,3.3-25,3.3h-35.1Z"/>
  </g>
  <g>
    <path class="st2" d="M397.4,484.6c5.4,0,10-2.8,13.8-8.4,3.8-5.6,6.8-12.5,9.1-20.7,2.3-8.2,4-17,5.1-26.4,1.1-9.4,1.6-17.8,1.6-25.4v-36.2c0-7.5-.5-16-1.6-25.2-1.1-9.3-2.8-18-5.1-26.1-2.3-8.1-5.4-14.9-9.1-20.4s-8.4-8.3-13.8-8.3v-2.9h98.4c14.1,0,27.5.8,39.9,2.3,12.5,1.5,23.4,4.7,32.7,9.6,9.3,4.8,16.7,11.7,22.1,20.7,5.4,9,8.1,20.8,8.1,35.5s-2.2,24.4-6.5,33.2c-4.4,8.8-10.4,15.8-18.2,21-7.7,5.2-16.9,8.9-27.5,11.2-10.6,2.2-22,3.3-34.4,3.3s-17.8-.9-27.2-2.6c-9.4-1.7-18.4-4.8-27.2-9.3,4.8,13.3,13.6,24.2,26.1,32.5,12.6,8.3,28.8,12.5,48.5,12.5s23.2-.8,31.2-2.5c8-1.6,14.3-4,18.7-7,4.5-3,7.5-6.6,9-10.9,1.5-4.2,2.3-9.1,2.3-14.5h2.9v67.9h-53.4c-16,0-30.3-3.2-42.8-9.7-12.5-6.5-23.1-14.7-31.8-24.7-8.7-10-15.3-20.9-19.9-32.9-4.5-12-6.8-23.6-6.8-34.8s1-5.3,2.9-6.5c1.9-1.3,4-1.3,6.1-.1,5.2,3.1,11.6,5.4,19.1,6.8,7.5,1.4,16,2.2,25.5,2.2h35.4c11,0,20.7-1,29-3,8.3-2,14.8-5.5,19.6-10.4,4.7-4.9,7.1-12.1,7.1-21.6s-1.8-14.5-5.4-19.1c-3.6-4.6-8.6-8.2-15-10.6-6.4-2.4-13.9-3.9-22.5-4.5-8.6-.6-18-.9-28-.9h-77.9v67.9c0,20.1,2.1,36.6,6.4,49.4,4.3,12.9,9,23,14.2,30.3,6,8.7,12.9,15.2,20.6,19.4v2.9h-81.8v-2.9Z"/>
    <path class="st2" d="M728.7,267c-14.1,0-27.4-2.7-39.8-8-12.4-5.3-23.2-12.7-32.5-22.2-9.3-9.5-16.6-20.6-21.9-33.4-5.3-12.8-8-26.6-8-41.5s2.7-28.4,8-41c5.3-12.7,12.6-23.6,21.9-32.9,9.3-9.3,20.1-16.6,32.5-21.9,12.4-5.3,25.7-8,39.8-8s27.4,2.7,39.9,8c12.5,5.3,23.4,12.6,32.7,21.9,9.3,9.3,16.6,20.3,21.9,32.9,5.3,12.7,8,26.3,8,41s-2.7,28.7-8,41.5c-5.3,12.8-12.6,23.9-21.9,33.4-9.3,9.5-20.2,16.9-32.7,22.2-12.5,5.3-25.8,8-39.9,8ZM637.5,162c0,9.7,2.4,18.7,7.1,27,4.7,8.3,11.3,15.6,19.6,21.9,8.3,6.3,18,11.2,29,14.8,11,3.6,22.8,5.4,35.4,5.4s24.4-1.8,35.5-5.4c11.1-3.6,20.8-8.5,29.1-14.8,8.3-6.3,14.9-13.6,19.7-21.9,4.8-8.3,7.2-17.3,7.2-27s-2.4-18.4-7.2-26.7c-4.8-8.3-11.4-15.6-19.7-21.8-8.3-6.2-18-11.1-29.1-14.8-11.1-3.7-23-5.5-35.5-5.5s-24.4,1.8-35.4,5.5c-11,3.7-20.7,8.6-29,14.8-8.3,6.2-14.8,13.4-19.6,21.8-4.7,8.3-7.1,17.2-7.1,26.7Z"/>
    <path class="st2" d="M1166.3,487.5c-14.1,0-27.4-2.5-39.8-7.5-12.4-5-23.2-12.1-32.5-21.2-9.3-9.1-16.7-19.9-22.1-32.3-5.4-12.5-8.1-26.1-8.1-41s2.7-28.2,8.1-40.5c5.4-12.3,12.8-22.9,22-31.9,9.3-9,20.1-16,32.5-21,12.4-5,25.6-7.5,39.7-7.5h83.2v67.3h-2.9c0-11-7-19.5-20.9-25.4-13.9-5.9-33.7-8.8-59.5-8.8s-24.4,1.8-35.5,5.4c-11.1,3.6-20.8,8.4-29,14.5-8.2,6.1-14.7,13.2-19.6,21.5-4.8,8.2-7.2,17.1-7.2,26.5s2.4,18.7,7.2,27c4.8,8.3,11.4,15.6,19.6,21.9,8.2,6.3,17.9,11.2,29,14.8,11.1,3.6,23,5.4,35.5,5.4,25.7,0,45.1-3.1,58.1-9.3,13-6.2,19.6-14.7,19.6-25.5v-30.4h-22c-25.7,0-45.6,1.9-59.6,5.7-14,3.8-21,11-21,21.6h-2.9v-66.7h2.9c0,10.8,7,18.1,21,21.9,14,3.8,33.9,5.7,59.6,5.7h33.1v67.6c0,5.8-1,11.3-2.9,16.5-1.9,5.2-5,9.8-9.1,13.6-4.2,3.9-9.6,6.9-16.4,9.1-6.8,2.2-15.1,3.3-25,3.3h-35.1Z"/>
  </g>
  <path class="st0" d="M864.8,248.8c0-7.5-.6-16-1.7-25.2s-2.9-18-5.2-26.1c-2.3-8.1-5.4-14.9-9.1-20.4s-8.3-8.3-13.5-8.3v-2.9h82.1v2.9c-7.5,3.5-14.3,8.7-20.3,15.7-2.5,2.9-5,6.4-7.4,10.4-2.4,4.1-4.6,8.8-6.5,14.1-1.9,5.3-3.5,11.3-4.6,17.8-1.2,6.6-1.7,13.9-1.7,22v23.2c0,9.1,1.3,17.5,3.9,25.2,2.6,7.7,6.7,14.5,12.3,20.2,5.6,5.7,12.7,10.2,21.3,13.5,8.6,3.3,18.9,4.9,30.8,4.9s22.9-1.7,31.5-5.1c8.7-3.4,15.8-8.1,21.4-14.1,5.6-6,9.7-13,12.3-21,2.6-8,3.9-16.7,3.9-26v-20.9c0-8.1-.6-15.5-1.7-22-1.2-6.6-2.7-12.5-4.6-17.8-1.9-5.3-4.1-10-6.5-14.1-2.4-4.1-4.9-7.5-7.4-10.4-6-7-12.8-12.2-20.3-15.7v-2.9h82.1v2.9c-5.2,0-9.7,2.8-13.5,8.3-3.8,5.5-6.8,12.3-9.1,20.4s-4.1,16.8-5.2,26.1-1.7,17.7-1.7,25.2v22.6c0,14.3-1.7,27.6-4.9,39.9-3.3,12.3-8.3,22.9-15,31.9-6.7,9-15.1,16-25.3,21-10.2,5-22.1,7.5-35.9,7.5s-25.7-2.5-35.7-7.5c-10.1-5-18.4-12-25-21-6.6-9-11.5-19.6-14.7-31.9-3.2-12.3-4.8-25.6-4.8-39.9v-22.6Z"/>
</svg>